<svg width="166" height="166" viewBox="0 0 166 166" fill="none" xmlns="http://www.w3.org/2000/svg">
<path d="M17.098 7.21181C15.4196 11.7123 15.4933 19.1269 17.2456 24.2729C18.6105 28.2569 20.4365 31.1712 23.2216 33.9194C24.8447 35.5056 24.6787 35.4318 20.7685 32.868C19.2745 31.8905 17.7805 30.71 16.7107 29.6772C15.8069 28.7918 15.0322 28.0725 15.0138 28.0909C14.9216 28.1832 15.5302 30.7654 15.8807 31.9089C16.4525 33.6243 17.7989 36.1696 19.0162 37.8296C20.2889 39.5449 22.2625 41.666 23.1478 42.2563C23.4982 42.496 23.7933 42.7912 23.7933 42.9018C23.7933 43.0125 23.0556 43.7503 22.1702 44.5065C19.4589 46.8489 15.5671 51.294 13.0587 54.9645C7.21179 63.4305 3.74423 72.5789 2.56379 82.5389C2.25023 85.1027 2.25023 92.462 2.54534 94.8967C3.5229 102.717 5.53334 109.376 8.94557 116.2C12.5238 123.338 16.8213 129.222 22.7605 135.106C35.6716 147.888 51.9949 156.003 70.4578 158.788C78.8131 160.061 88.9022 160.024 97.4789 158.714C108.804 156.981 119.299 152.997 129.443 146.56C134.312 143.479 138.167 140.362 142.594 135.936C148.22 130.328 152.351 124.758 155.763 118.155C165.281 99.7845 165.17 78.5918 155.45 61.1434C152.185 55.278 148.736 50.7776 143.996 46.1665L141.487 43.7503L142.612 42.9756C146.892 39.9507 150.156 35.4872 151.521 30.7285C152.314 27.9434 152.259 27.9065 150.175 29.8985C148.367 31.6507 145.619 33.6427 143.221 34.9523L141.93 35.6716L143.369 34.3067C146.043 31.7983 148.054 28.8656 149.382 25.5456C151.503 20.2152 151.798 13.2616 150.119 7.83892C149.916 7.19337 149.695 6.62159 149.603 6.56625C149.529 6.51092 148.92 7.15648 148.275 7.98648C145.49 11.5831 141.524 15.0876 136.304 18.5183C131.804 21.5063 128.595 23.2032 121.42 26.4309C115.886 28.9394 116.716 28.7918 113.839 27.7774C106.941 25.3796 98.6778 23.6643 90.5622 22.9634C86.7996 22.6314 78.3705 22.576 75.2533 22.8712C66.8796 23.6458 60.1473 25.0476 52.7142 27.556L49.8 28.5336L45.7053 26.6523C36.1142 22.2809 31.208 19.4405 26.0251 15.3089C23.406 13.2063 21.3402 11.2143 19.6065 9.07471C18.8133 8.1156 18.0018 7.11959 17.7805 6.86137L17.3931 6.38181L17.098 7.21181ZM134.7 42.1087C134.405 42.4223 133.685 43.326 133.114 44.0823C128.779 49.9107 123.688 54.8907 117.067 59.7416C111.368 63.91 99.268 71.6567 92.7202 75.3456L88.8838 77.5036L87.8509 76.6183C86.818 75.7329 85.5822 74.202 84.6969 72.6896L84.2358 71.8965L84.6785 71.546C84.9182 71.3616 86.486 70.4394 88.1645 69.5172C95.4131 65.4594 114.226 54.2636 126.437 46.7198C127.765 45.9083 129.794 44.654 130.956 43.9347C132.118 43.2154 133.538 42.33 134.091 41.9796C134.644 41.6292 135.142 41.3894 135.179 41.4263C135.235 41.4632 135.013 41.7767 134.7 42.1087ZM41.3525 48.0109C48.0478 52.2716 55.1489 56.6429 63.08 61.4016C69.4802 65.238 72.7449 67.1563 79.1636 70.7714L80.7682 71.6752L79.8829 73.0585C78.9053 74.5894 76.8949 76.8396 76.3416 77.0056C75.53 77.2638 69.5725 73.7778 59.6678 67.2116C46.4985 58.5058 41.7029 54.5956 36.6676 48.5089C35.2473 46.7936 31.3556 41.7398 31.3556 41.6107C31.3556 41.5738 32.6467 42.4038 34.196 43.4183C35.7638 44.4512 38.9916 46.5169 41.3525 48.0109ZM32.3331 50.962C33.8825 52.0134 35.3027 52.954 35.4871 53.0647C35.8376 53.2492 35.8191 53.3229 35.192 54.9829C34.1222 57.8049 33.8456 59.2989 33.8456 62.3423C33.864 65.2934 34.1776 66.9534 35.2289 69.6647C36.8151 73.8147 40.3011 77.5958 44.3958 79.6616C51.5153 83.2214 60.5716 81.9487 65.3856 76.6736L66.5845 75.364L67.6911 75.8989C69.0191 76.526 69.0191 76.5814 67.8387 78.7394C65.1642 83.5718 60.6269 87.4267 55.3887 89.2712C54.2636 89.6585 52.8249 90.0827 52.1793 90.1934C46.2587 91.2816 40.1167 90.1565 35.3396 87.0947C24.0885 79.9014 19.9938 65.9758 25.73 54.3743C26.1727 53.5074 26.8182 52.3269 27.1871 51.7736C27.8511 50.7776 29.2713 49.0623 29.4373 49.0623C29.4927 49.0623 30.7838 49.9107 32.3331 50.962ZM137.264 50.1136C139.79 52.788 141.819 56.9012 142.981 61.7889C143.332 63.3014 143.387 64.0392 143.406 67.3223C143.406 70.9743 143.387 71.1772 142.815 73.3167C142.096 76.0834 141.045 78.4996 139.698 80.5654C138.499 82.3914 135.308 85.6745 133.667 86.7443C130.66 88.7363 127.23 90.1012 123.799 90.6545C121.198 91.0972 116.292 90.968 113.876 90.4147C110.667 89.6585 107.513 88.2936 104.801 86.4676C102.957 85.2318 100.043 82.3914 98.8991 80.7314C98.0322 79.4772 96.6489 76.9134 96.6489 76.5814C96.6489 76.5076 97.2391 76.1572 97.94 75.8067L99.2311 75.1796L99.8213 75.8805C101.721 78.186 105.392 80.4363 108.601 81.2847C110.814 81.8565 114.245 82.0594 116.348 81.7089C122.895 80.6576 127.857 77.0978 130.476 71.5645C133.15 65.902 132.984 60.59 129.923 53.5627C129.867 53.452 130.771 52.7327 131.915 51.958C133.058 51.2018 134.423 50.2243 134.921 49.8185C135.438 49.4127 135.936 49.0807 136.046 49.0807C136.157 49.0623 136.71 49.5418 137.264 50.1136ZM83.5349 78.1676C86.3753 80.5469 92.4251 85.2872 93.9376 86.3016C94.6569 86.7996 94.8045 86.9656 94.6938 87.2976C94.2327 88.8838 87.8325 100.91 83.7747 107.882C82.7971 109.542 82.7602 109.578 82.4467 109.265C81.7642 108.546 73.9069 94.2327 71.8965 90.0643C70.2918 86.7258 70.1996 87.1132 73.1691 84.9367C74.534 83.9223 77.2085 81.8196 79.1082 80.2887C80.9896 78.7394 82.5758 77.4667 82.6127 77.4667C82.668 77.4667 83.0738 77.7803 83.5349 78.1676Z" fill="#093410"/>
</svg>
