<svg width="351" height="351" viewBox="0 0 351 351" fill="none" xmlns="http://www.w3.org/2000/svg">
<path d="M36.1529 15.249C32.6039 24.765 32.7599 40.4431 36.4649 51.3241C39.3509 59.7481 43.2119 65.9101 49.1009 71.7211C52.5329 75.0751 52.1819 74.9191 43.9139 69.4981C40.7549 67.4311 37.5959 64.9351 35.3339 62.7511C33.4229 60.8791 31.7849 59.3581 31.7459 59.3971C31.5509 59.5921 32.8379 65.0521 33.5789 67.4701C34.7879 71.0971 37.6349 76.4791 40.2089 79.9891C42.8999 83.6161 47.0729 88.1011 48.9449 89.3491C49.6859 89.8561 50.3099 90.4801 50.3099 90.7141C50.3099 90.9481 48.7499 92.5081 46.8779 94.1071C41.1449 99.0601 32.9159 108.459 27.6119 116.22C15.2489 134.121 7.91694 153.465 5.42094 174.525C4.75794 179.946 4.75794 195.507 5.38194 200.655C7.44894 217.191 11.6999 231.27 18.9149 245.7C26.4809 260.793 35.5679 273.234 48.1259 285.675C75.4259 312.702 109.941 329.862 148.98 335.751C166.647 338.442 187.98 338.364 206.115 335.595C230.061 331.929 252.252 323.505 273.702 309.894C283.998 303.381 292.149 296.79 301.509 287.43C313.404 275.574 322.14 263.796 329.355 249.834C349.479 210.99 349.245 166.179 328.692 129.285C321.789 116.883 314.496 107.367 304.473 97.6171L299.169 92.5081L301.548 90.8701C310.596 84.4741 317.499 75.0361 320.385 64.9741C322.062 59.0851 321.945 59.0071 317.538 63.2191C313.716 66.9241 307.905 71.1361 302.835 73.9051L300.105 75.4261L303.147 72.5401C308.802 67.2361 313.053 61.0351 315.861 54.0151C320.346 42.7441 320.97 28.041 317.421 16.575C316.992 15.21 316.524 14.001 316.329 13.884C316.173 13.767 314.886 15.132 313.521 16.887C307.632 24.492 299.247 31.9021 288.21 39.1561C278.694 45.4741 271.908 49.0621 256.737 55.8871C245.037 61.1911 246.792 60.8791 240.708 58.7341C226.122 53.6641 208.65 50.0371 191.49 48.5551C183.534 47.8531 165.711 47.7361 159.12 48.3601C141.414 49.9981 127.179 52.9621 111.462 58.2661L105.3 60.3331L96.6419 56.3551C76.3619 47.1121 65.9879 41.1061 55.0289 32.3701C49.4909 27.9241 45.1229 23.7121 41.4569 19.1881C39.7799 17.1601 38.0639 15.054 37.5959 14.508L36.7769 13.494L36.1529 15.249ZM284.817 89.0371C284.193 89.7001 282.672 91.6111 281.463 93.2101C272.298 105.534 261.534 116.064 247.533 126.321C235.482 135.135 209.898 151.515 196.053 159.315L187.941 163.878L185.757 162.006C183.573 160.134 180.96 156.897 179.088 153.699L178.113 152.022L179.049 151.281C179.556 150.891 182.871 148.941 186.42 146.991C201.747 138.411 241.527 114.738 267.345 98.7871C270.153 97.0711 274.443 94.4191 276.9 92.8981C279.357 91.3771 282.36 89.5051 283.53 88.7641C284.7 88.0231 285.753 87.5161 285.831 87.5941C285.948 87.6721 285.48 88.3351 284.817 89.0371ZM87.4379 101.517C101.595 110.526 116.61 119.769 133.38 129.831C146.913 137.943 153.816 141.999 167.388 149.643L170.781 151.554L168.909 154.479C166.842 157.716 162.591 162.474 161.421 162.825C159.705 163.371 147.108 156 126.165 142.116C98.3189 123.708 88.1789 115.44 77.5319 102.57C74.5289 98.9431 66.2999 88.2571 66.2999 87.9841C66.2999 87.9061 69.0299 89.6611 72.3059 91.8061C75.6209 93.9901 82.4459 98.3581 87.4379 101.517ZM68.3669 107.757C71.6429 109.98 74.6459 111.969 75.0359 112.203C75.7769 112.593 75.7379 112.749 74.4119 116.259C72.1499 122.226 71.5649 125.385 71.5649 131.82C71.6039 138.06 72.2669 141.57 74.4899 147.303C77.8439 156.078 85.2149 164.073 93.8729 168.441C108.927 175.968 128.076 173.277 138.255 162.123L140.79 159.354L143.13 160.485C145.938 161.811 145.938 161.928 143.442 166.491C137.787 176.709 128.193 184.86 117.117 188.76C114.738 189.579 111.696 190.476 110.331 190.71C97.8119 193.011 84.8249 190.632 74.7239 184.158C50.9339 168.948 42.2759 139.503 54.4049 114.972C55.3409 113.139 56.7059 110.643 57.4859 109.473C58.8899 107.367 61.8929 103.74 62.2439 103.74C62.3609 103.74 65.0909 105.534 68.3669 107.757ZM290.238 105.963C295.581 111.618 299.871 120.315 302.328 130.65C303.069 133.848 303.186 135.408 303.225 142.35C303.225 150.072 303.186 150.501 301.977 155.025C300.456 160.875 298.233 165.984 295.386 170.352C292.851 174.213 286.104 181.155 282.633 183.417C276.276 187.629 269.022 190.515 261.768 191.685C256.269 192.621 245.895 192.348 240.786 191.178C234 189.579 227.331 186.693 221.598 182.832C217.698 180.219 211.536 174.213 209.118 170.703C207.285 168.051 204.36 162.63 204.36 161.928C204.36 161.772 205.608 161.031 207.09 160.29L209.82 158.964L211.068 160.446C215.085 165.321 222.846 170.079 229.632 171.873C234.312 173.082 241.566 173.511 246.012 172.77C259.857 170.547 270.348 163.02 275.886 151.32C281.541 139.347 281.19 128.115 274.716 113.256C274.599 113.022 276.51 111.501 278.928 109.863C281.346 108.264 284.232 106.197 285.285 105.339C286.377 104.481 287.43 103.779 287.664 103.779C287.898 103.74 289.068 104.754 290.238 105.963ZM176.631 165.282C182.637 170.313 195.429 180.336 198.627 182.481C200.148 183.534 200.46 183.885 200.226 184.587C199.251 187.941 185.718 213.369 177.138 228.111C175.071 231.621 174.993 231.699 174.33 231.036C172.887 229.515 156.273 199.251 152.022 190.437C148.629 183.378 148.434 184.197 154.713 179.595C157.599 177.45 163.254 173.004 167.271 169.767C171.249 166.491 174.603 163.8 174.681 163.8C174.798 163.8 175.656 164.463 176.631 165.282Z" fill="white"/>
</svg>
